<svg width="99" height="98" viewBox="0 0 99 98" fill="none" xmlns="http://www.w3.org/2000/svg">
<g id="Frame" clip-path="url(#clip0_519_134)">
<path id="Vector" d="M0 0V98H98.6842V0H0ZM97.3499 1.3251V95.6955L49.3131 77.2593V67.2922C52.4459 68.1564 55.7528 68.6173 59.1757 68.6173C73.3895 68.6173 85.8048 60.6667 92.0704 49.0288C85.8048 37.3909 73.4475 29.4403 59.1757 29.4403C55.4627 29.4403 51.9238 29.9588 48.5009 30.9959C46.4123 24.3704 40.2047 19.5885 32.8947 19.5885C23.7863 19.5885 16.4184 26.9053 16.4184 35.9506V77.6049L1.33435 95.8107V1.3251H97.3499ZM48.0368 35.9506V65.5638C39.5665 62.7407 32.3146 56.9794 27.8474 48.9712C32.2566 41.1358 39.3925 35.3745 47.6887 32.5514C47.8627 33.6461 48.0368 34.7984 48.0368 35.9506ZM48.907 32.2058C52.2139 31.2263 55.6368 30.7078 59.2337 30.7078C72.2872 30.7078 84.2384 37.679 90.6201 48.9712C84.2384 60.2634 72.2872 67.2346 59.2337 67.2346C55.8688 67.2346 52.5039 66.7737 49.3711 65.8518V35.893C49.3131 34.6255 49.1971 33.4156 48.907 32.2058ZM26.339 48.9712C30.8642 57.4403 38.6383 63.9506 48.0368 66.8889V77.0864H17.7527V35.9506C17.7527 27.6543 24.5405 20.9136 32.8947 20.9136C39.6245 20.9136 45.31 25.2922 47.2826 31.3416C38.2322 34.3374 30.7482 40.7325 26.339 48.9712ZM17.4626 78.4115H48.6169L96.2476 96.6749H2.2626L17.4626 78.4115Z" fill="#F4F4F4"/>
</g>
<defs>
<clipPath id="clip0_519_134">
<rect width="98.6842" height="98" fill="white"/>
</clipPath>
</defs>
</svg>
