<svg width="116" height="34" viewBox="0 0 116 34" fill="none" xmlns="http://www.w3.org/2000/svg">
<g id="logo text">
<g id="Vector">
<path d="M20.3053 0.666992H18.4768L10.6207 15.2553L2.69697 0.666992H0.868408L9.67258 17.0003L0.868408 33.3337H2.69697L10.6207 18.6755L18.4768 33.3337H20.373L11.5011 17.0003L20.3053 0.666992Z" fill="#B6A172"/>
<path d="M33.3085 17.4191H44.7539V15.8137H33.3085V2.27241H48.411V0.666992H31.7508V33.3337H49.4946V31.7282H33.3085V17.4191Z" fill="#B6A172"/>
<path d="M82.883 31.449L63.5816 0.666992H61.2789V33.3337H62.8366V2.48181L82.2058 33.3337H84.4407V0.666992H82.883V31.449Z" fill="#B6A172"/>
<path d="M114.51 33.3337H116L106.315 0.666992H104.148L94.3959 33.3337H95.8858L99.0689 22.5844H111.259L114.51 33.3337ZM99.6107 20.979L105.232 1.9932L110.853 20.979H99.6107Z" fill="#B6A172"/>
<path d="M20.3053 0.666992H18.4768L10.6207 15.2553L2.69697 0.666992H0.868408L9.67258 17.0003L0.868408 33.3337H2.69697L10.6207 18.6755L18.4768 33.3337H20.373L11.5011 17.0003L20.3053 0.666992Z" fill="#F4F4F4"/>
<path d="M33.3085 17.4191H44.7539V15.8137H33.3085V2.27241H48.411V0.666992H31.7508V33.3337H49.4946V31.7282H33.3085V17.4191Z" fill="#F4F4F4"/>
<path d="M82.883 31.449L63.5816 0.666992H61.2789V33.3337H62.8366V2.48181L82.2058 33.3337H84.4407V0.666992H82.883V31.449Z" fill="#F4F4F4"/>
<path d="M114.51 33.3337H116L106.315 0.666992H104.148L94.3959 33.3337H95.8858L99.0689 22.5844H111.259L114.51 33.3337ZM99.6107 20.979L105.232 1.9932L110.853 20.979H99.6107Z" fill="#F4F4F4"/>
</g>
</g>
</svg>
