<svg width="24" height="24" viewBox="0 0 24 24" fill="none" xmlns="http://www.w3.org/2000/svg">
<g id="Frame 14">
<g id="Vector">
<path d="M2.75098e-07 18.9231C2.75098e-07 18.6682 0.206638 18.4615 0.461539 18.4615H23.5385C23.7934 18.4615 24 18.6682 24 18.9231C24 19.178 23.7934 19.3846 23.5385 19.3846H0.461539C0.206638 19.3846 2.75098e-07 19.178 2.75098e-07 18.9231Z" fill="#B6A172"/>
<path d="M0 11.5385C0 11.2836 0.206638 11.0769 0.461538 11.0769H16.1538C16.4087 11.0769 16.6154 11.2836 16.6154 11.5385C16.6154 11.7934 16.4087 12 16.1538 12H0.461539C0.206638 12 0 11.7934 0 11.5385Z" fill="#B6A172"/>
<path d="M0 4.15384C0 3.89894 0.206638 3.69231 0.461538 3.69231H9.69231C9.94721 3.69231 10.1538 3.89894 10.1538 4.15384C10.1538 4.40875 9.94721 4.61538 9.69231 4.61538H0.461539C0.206638 4.61538 0 4.40875 0 4.15384Z" fill="#B6A172"/>
</g>
</g>
</svg>
