<svg width="24" height="24" viewBox="0 0 24 24" fill="none" xmlns="http://www.w3.org/2000/svg">
<g id="icon search">
<path id="Vector" d="M20.0465 19.3385L16.14 15.4325C17.3413 14.0705 18.0029 12.3161 18 10.5C18 8.4965 17.22 6.613 15.8035 5.1965C14.387 3.78 12.5035 3 10.5005 3C8.4975 3 6.6135 3.78 5.1965 5.196C3.7795 6.612 3 8.496 3 10.4995C3 12.503 3.78 14.386 5.1965 15.8025C6.613 17.219 8.4965 17.9995 10.5 17.9995C12.335 17.9995 14.065 17.338 15.4325 16.139L19.3385 20.045C19.3848 20.0916 19.4399 20.1286 19.5006 20.1538C19.5612 20.179 19.6263 20.192 19.692 20.192C19.7577 20.192 19.8228 20.179 19.8834 20.1538C19.9441 20.1286 19.9992 20.0916 20.0455 20.045C20.1392 19.9512 20.1919 19.8241 20.1919 19.6915C20.1919 19.5589 20.1392 19.4318 20.0455 19.338L20.0465 19.3385ZM5.9035 15.096C4.676 13.868 4 12.236 4 10.5C4 8.764 4.676 7.1315 5.9035 5.9035C7.1315 4.676 8.7635 4 10.5 4C12.2365 4 13.8685 4.676 15.0965 5.9035C16.324 7.1315 17.0005 8.7635 17.0005 10.5C17.0005 12.2365 16.324 13.868 15.0965 15.096C13.8685 16.3235 12.2365 17 10.5005 17C8.7645 17 7.131 16.3235 5.9035 15.096Z" fill="#F4F4F4"/>
</g>
</svg>
