<svg width="70" height="20" viewBox="0 0 70 20" fill="none" xmlns="http://www.w3.org/2000/svg">
<g id="logo text">
<g id="Vector">
<path d="M11.8176 0H10.7059L5.92941 8.93162L1.11176 0H0L5.35294 10L0 20H1.11176L5.92941 11.0256L10.7059 20H11.8588L6.4647 10L11.8176 0Z" fill="#B6A172"/>
<path d="M19.7235 10.2564H26.6824V9.2735H19.7235V0.982906H28.9059V0H18.7765V20H29.5647V19.0171H19.7235V10.2564Z" fill="#B6A172"/>
<path d="M49.8649 18.8462L38.1296 0H36.7296V20H37.6767V1.11111L49.4531 20H50.8119V0H49.8649V18.8462Z" fill="#B6A172"/>
<path d="M69.0941 20H70L64.1118 0H62.7941L56.8647 20H57.7706L59.7059 13.4188H67.1177L69.0941 20ZM60.0353 12.4359L63.453 0.811966L66.8706 12.4359H60.0353Z" fill="#B6A172"/>
<path d="M11.8176 0H10.7059L5.92941 8.93162L1.11176 0H0L5.35294 10L0 20H1.11176L5.92941 11.0256L10.7059 20H11.8588L6.4647 10L11.8176 0Z" fill="#B6A172"/>
<path d="M19.7235 10.2564H26.6824V9.2735H19.7235V0.982906H28.9059V0H18.7765V20H29.5647V19.0171H19.7235V10.2564Z" fill="#B6A172"/>
<path d="M49.8649 18.8462L38.1296 0H36.7296V20H37.6767V1.11111L49.4531 20H50.8119V0H49.8649V18.8462Z" fill="#B6A172"/>
<path d="M69.0941 20H70L64.1118 0H62.7941L56.8647 20H57.7706L59.7059 13.4188H67.1177L69.0941 20ZM60.0353 12.4359L63.453 0.811966L66.8706 12.4359H60.0353Z" fill="#B6A172"/>
</g>
</g>
</svg>
