<svg width="60" height="60" viewBox="0 0 60 60" fill="none" xmlns="http://www.w3.org/2000/svg">
<g id="Frame" clip-path="url(#clip0_519_325)">
<path id="Vector" d="M0 0V60H60V0H0ZM59.1887 0.811287V58.5891L29.9824 47.3016V41.1993C31.8871 41.7284 33.8977 42.0106 35.9788 42.0106C44.6208 42.0106 52.1693 37.1429 55.9788 30.0176C52.1693 22.8924 44.6561 18.0247 35.9788 18.0247C33.7213 18.0247 31.5697 18.3421 29.4885 18.9771C28.2187 14.9206 24.4444 11.9929 20 11.9929C14.4621 11.9929 9.98236 16.4727 9.98236 22.0106V47.5132L0.811287 58.6596V0.811287H59.1887ZM29.2063 22.0106V40.1411C24.0564 38.4127 19.6473 34.8854 16.9312 29.9824C19.612 25.1852 23.9506 21.6578 28.9947 19.9295C29.1005 20.5996 29.2063 21.3051 29.2063 22.0106ZM29.7354 19.7178C31.746 19.1182 33.8272 18.8007 36.0141 18.8007C43.9506 18.8007 51.2169 23.0688 55.097 29.9824C51.2169 36.8959 43.9506 41.164 36.0141 41.164C33.9683 41.164 31.9224 40.8818 30.0176 40.3175V21.9753C29.9824 21.1993 29.9118 20.4586 29.7354 19.7178ZM16.0141 29.9824C18.7654 35.1675 23.4921 39.1534 29.2063 40.9524V47.1958H10.7937V22.0106C10.7937 16.9312 14.9206 12.8042 20 12.8042C24.0917 12.8042 27.5485 15.485 28.7478 19.1887C23.2451 21.0229 18.6949 24.9383 16.0141 29.9824ZM10.6173 48.0071H29.5591L58.5185 59.1887H1.37566L10.6173 48.0071Z" fill="#B6A172"/>
</g>
<defs>
<clipPath id="clip0_519_325">
<rect width="60" height="60" fill="white"/>
</clipPath>
</defs>
</svg>
